<svg width="501" height="500" viewBox="0 0 501 500" fill="none" xmlns="http://www.w3.org/2000/svg">
    <path d="M240.26 49.9099H80.35V250.84H240.26V49.9099Z" fill="#E0E0E0"/>
    <path d="M235.43 55.6599H86.2V245.1H235.43V55.6599Z" fill="#FAFAFA"/>
    <path d="M86.2 195.11H116.22L120.08 212.78H133.11L144.21 162.54H181.35V128.28H208.37V185.52H235.43V245.11H86.2V195.11Z"
          fill="#F5F5F5"/>
    <path d="M163.19 55.6599H158.37V243.54H163.19V55.6599Z" fill="#E0E0E0"/>
    <path d="M235.43 147.44H86.2V152.38H235.43V147.44Z" fill="#E0E0E0"/>
    <path d="M392.14 103.48L401.74 128.03L395.77 128.01L390.99 112.92L392.14 103.48Z" fill="#E0E0E0"/>
    <path d="M359.37 80.7899L356.07 127.84L390.13 128.55L393.96 80.7899H359.37Z" fill="#EBEBEB"/>
    <path d="M362.77 84.58L360.03 123.74L385.35 124.93L388.89 84.35L362.77 84.58Z" fill="#FAFAFA"/>
    <path d="M368.33 90.12L366.27 117.64H380.24L382.71 90.12H368.33Z" fill="#E0E0E0"/>
    <path d="M308.78 128.21V89.52H337.11V128.18L308.78 128.21Z" fill="#EBEBEB"/>
    <path d="M324.89 89.52C324.89 89.52 331.72 39.58 329.81 39.65C327.9 39.72 323.09 85.18 323.09 85.18C323.09 85.18 322.89 47.53 321.09 47.73C319.29 47.93 321.09 87.59 321.09 87.59C321.09 87.59 318.01 55.4 316.35 56.17C314.69 56.94 317.06 89.52 317.06 89.52H324.9"
          fill="#E0E0E0"/>
    <path d="M319.74 89.5199C319.74 89.5199 322.11 64.63 322.89 66.33C323.67 68.03 322.89 81.15 322.89 81.15C322.89 81.15 329.5 49 331.17 50.07C332.84 51.14 324.5 85 324.5 85C324.5 85 330.9 65.69 332.31 67.73C333.72 69.77 327 87.8799 327 87.8799C327 87.8799 333.87 75.07 334.34 76.79C334.81 78.51 331.06 89.5299 331.06 89.5299L319.74 89.5199Z"
          fill="#EBEBEB"/>
    <path d="M315.7 89.67C315.7 89.67 300.56 59.94 302.43 60.86C304.3 61.78 313.99 81 313.99 81C313.99 81 307.58 62.46 308.99 61.89C310.4 61.32 317.42 82.72 317.42 82.72L319 89.72L315.7 89.67Z"
          fill="#EBEBEB"/>
    <path d="M321.9 89.59L322.61 128.27H309.14L308.88 89.46L321.9 89.59Z" fill="#E0E0E0"/>
    <path d="M308.81 92.94L321.86 93.16L337.11 92.94L337.59 89.24H308.44L308.81 92.94Z" fill="#F5F5F5"/>
    <path d="M426.07 127.58H284.41V133.8H426.07V127.58Z" fill="#E0E0E0"/>
    <path d="M310.96 351.72C309.76 350.39 312.59 342.62 326.02 342.07C339.45 341.52 344.83 346.41 344.85 351.72C344.86 354.07 310.96 351.72 310.96 351.72Z"
          fill="#455A64"/>
    <path d="M304.33 148.44L289.41 240.71H425.67L442.09 147.45L304.33 148.44Z" fill="#F5F5F5"/>
    <path d="M302.97 156.83C303.03 156.51 440.53 156.31 440.53 156.31L442.09 147.45L304.33 148.45L302.97 156.85"
          fill="#E0E0E0"/>
    <path d="M310.09 152.59C310.092 152.842 310.019 153.088 309.881 153.298C309.743 153.508 309.545 153.673 309.313 153.77C309.081 153.868 308.825 153.895 308.578 153.847C308.331 153.799 308.104 153.679 307.926 153.502C307.747 153.324 307.625 153.098 307.575 152.851C307.525 152.605 307.55 152.349 307.646 152.116C307.742 151.884 307.904 151.685 308.113 151.545C308.322 151.405 308.568 151.33 308.82 151.33C308.986 151.329 309.151 151.36 309.305 151.423C309.459 151.486 309.599 151.578 309.717 151.695C309.836 151.813 309.929 151.952 309.993 152.105C310.057 152.259 310.09 152.424 310.09 152.59Z"
          fill="#263238"/>
    <path d="M316.29 152.59C316.29 152.839 316.216 153.083 316.078 153.29C315.939 153.497 315.742 153.659 315.512 153.754C315.282 153.849 315.029 153.874 314.784 153.826C314.54 153.777 314.315 153.657 314.139 153.481C313.963 153.305 313.843 153.08 313.794 152.836C313.746 152.591 313.771 152.338 313.866 152.108C313.961 151.878 314.123 151.681 314.33 151.542C314.537 151.404 314.781 151.33 315.03 151.33C315.364 151.33 315.685 151.463 315.921 151.699C316.157 151.935 316.29 152.256 316.29 152.59Z"
          fill="#263238"/>
    <path d="M322.5 152.59C322.502 152.842 322.429 153.088 322.291 153.298C322.153 153.508 321.955 153.673 321.723 153.77C321.491 153.868 321.236 153.895 320.989 153.847C320.742 153.799 320.514 153.679 320.336 153.502C320.157 153.324 320.035 153.098 319.985 152.851C319.936 152.605 319.96 152.349 320.056 152.116C320.152 151.884 320.314 151.685 320.524 151.545C320.733 151.405 320.979 151.33 321.23 151.33C321.396 151.329 321.561 151.36 321.715 151.423C321.869 151.486 322.01 151.578 322.128 151.695C322.246 151.813 322.339 151.952 322.403 152.105C322.467 152.259 322.5 152.424 322.5 152.59Z"
          fill="#263238"/>
    <path d="M337.89 198.28L320.84 218C317.621 215.816 314.975 212.887 313.128 209.463C311.281 206.039 310.287 202.22 310.23 198.33C310.23 184.62 322.72 173.33 337.89 173.33C353.06 173.33 365.55 184.61 365.55 198.33L337.89 198.28Z"
          fill="#FF725E"/>
    <path d="M340.08 201.41C339.997 201.55 339.9 201.68 339.79 201.8L338.9 202.86L335.52 206.86C332.58 210.3 328.4 215.16 323.39 221.01V220.69C327.167 223.29 331.531 224.912 336.09 225.41C341.237 226.003 346.448 225.216 351.19 223.13C355.716 221.164 359.624 218.009 362.5 214C363.796 212.13 364.835 210.096 365.59 207.95C366.249 205.946 366.649 203.865 366.78 201.76L367 201.99L347.5 201.66L342.02 201.54L340.57 201.49C340.401 201.506 340.23 201.506 340.06 201.49C340.22 201.474 340.381 201.474 340.54 201.49H341.97H347.42L367 201.62H367.24V201.86C367.127 204.013 366.73 206.141 366.06 208.19C365.301 210.382 364.248 212.461 362.93 214.37C360.001 218.486 355.999 221.72 351.36 223.72C346.531 225.833 341.227 226.627 335.99 226.02C331.354 225.494 326.921 223.824 323.09 221.16L322.89 221.02L323.05 220.83L335.39 206.76L338.84 202.86L339.76 201.86C339.853 201.701 339.961 201.55 340.08 201.41Z"
          fill="#263238"/>
    <path d="M349.65 184.98C350.506 184.98 351.2 184.286 351.2 183.43C351.2 182.574 350.506 181.88 349.65 181.88C348.794 181.88 348.1 182.574 348.1 183.43C348.1 184.286 348.794 184.98 349.65 184.98Z"
          fill="#263238"/>
    <path d="M381.99 172.09C381.507 172.165 381.019 172.198 380.53 172.19L376.53 172.27C373.18 172.27 368.53 172.35 363.44 172.35H361L361.18 172.28C357.97 175.48 355.11 178.28 353.04 180.28L350.59 182.62C350.311 182.924 349.995 183.193 349.65 183.42C349.893 183.087 350.164 182.776 350.46 182.49C351.07 181.84 351.86 181.02 352.8 180.04C354.8 177.97 357.62 175.11 360.8 171.89L360.87 171.82H363.5C368.61 171.82 373.24 171.82 376.59 171.89L380.59 171.98C381.059 171.972 381.528 172.009 381.99 172.09Z"
          fill="#263238"/>
    <path d="M417.11 191.57C417.117 191.391 417.14 191.214 417.18 191.04C417.24 190.68 417.32 190.19 417.43 189.56L418.43 183.97L422.04 163.91L422.25 164.16L383.52 164.21L383.77 164V164.1V164.22V164.45L383.68 164.91L383.51 165.84L383.17 167.68C382.94 168.9 382.72 170.11 382.49 171.31C382.05 173.71 381.613 176.07 381.18 178.39C380.31 183.01 379.48 187.39 378.71 191.6L378.47 191.32L406.37 191.43L414.37 191.5H416.5H417.05H417.25H417.08H416.55H414.46L406.54 191.56L378.54 191.67H378.26L378.31 191.39C379.08 187.22 379.89 182.79 380.75 178.16C381.17 175.85 381.61 173.49 382.05 171.09C382.28 169.88 382.5 168.67 382.73 167.45C382.84 166.84 382.95 166.23 383.07 165.61L383.24 164.69L383.32 164.23L383.37 163.99V163.88V163.79L383.63 163.57L422.36 163.62H422.5L422.45 163.87C420.85 172.24 419.53 179.15 418.61 184C418.14 186.37 417.78 188.23 417.52 189.54L417.23 190.97C417.15 191.42 417.11 191.58 417.11 191.57Z"
          fill="#263238"/>
    <path d="M352.08 216.16C352.936 216.16 353.63 215.466 353.63 214.61C353.63 213.754 352.936 213.06 352.08 213.06C351.224 213.06 350.53 213.754 350.53 214.61C350.53 215.466 351.224 216.16 352.08 216.16Z"
          fill="#263238"/>
    <path d="M380.22 214.61C380.22 214.76 373.92 214.87 366.15 214.87C358.38 214.87 352.08 214.76 352.08 214.61C352.08 214.46 358.38 214.35 366.15 214.35C373.92 214.35 380.22 214.47 380.22 214.61Z"
          fill="#263238"/>
    <path d="M417.11 226.69C417.123 226.562 417.146 226.434 417.18 226.31C417.24 226.04 417.32 225.68 417.43 225.23C417.66 224.23 417.99 222.9 418.43 221.16C419.3 217.62 420.54 212.57 422.07 206.36L422.26 206.6L382.32 206.66L382.57 206.47V206.53V206.61V206.78L382.48 207.12L382.31 207.78L381.98 209.12C381.75 210 381.53 210.88 381.31 211.76L379.89 217C379.03 220.39 378.2 223.67 377.4 226.8L377.17 226.5L405.82 226.61L414.1 226.67H416.32H416.9H417.11H416.93H416.37H414.2L405.96 226.73L377.17 226.84H376.85L376.93 226.53C377.72 223.4 378.54 220.11 379.39 216.72C379.817 215.02 380.253 213.297 380.7 211.55L381.36 208.91L381.7 207.58L381.87 206.91L381.95 206.57V206.41V206.32V206.26L382.2 206.06L422.14 206.13H422.5L422.44 206.37C420.82 212.61 419.51 217.68 418.59 221.23C418.13 222.94 417.77 224.29 417.52 225.23C417.4 225.66 417.31 226 417.24 226.23C417.17 226.46 417.11 226.7 417.11 226.69Z"
          fill="#263238"/>
    <path d="M413.96 172.44C413.96 172.59 408.03 172.7 400.71 172.7C393.39 172.7 387.46 172.59 387.46 172.44C387.46 172.29 393.39 172.18 400.71 172.18C408.03 172.18 413.96 172.3 413.96 172.44Z"
          fill="#263238"/>
    <path d="M413.65 176.78C413.65 176.93 407.65 177.04 400.33 177.04C393.01 177.04 387 176.93 387 176.78C387 176.63 393 176.52 400.33 176.52C407.66 176.52 413.65 176.64 413.65 176.78Z"
          fill="#263238"/>
    <path d="M412.88 181C412.88 181.14 407.12 181.26 400.02 181.26C392.92 181.26 387.15 181.14 387.15 181C387.15 180.86 392.91 180.74 400.02 180.74C407.13 180.74 412.88 180.82 412.88 181Z"
          fill="#263238"/>
    <path d="M413.34 214.13C413.34 214.27 407.69 214.39 400.71 214.39C393.73 214.39 388.08 214.27 388.08 214.13C388.08 213.99 393.74 213.87 400.71 213.87C407.68 213.87 413.34 214 413.34 214.13Z"
          fill="#263238"/>
    <path d="M411.79 218.93C411.79 219.08 406.97 219.19 401.02 219.19C395.07 219.19 390.25 219.08 390.25 218.93C390.25 218.78 395.07 218.67 401.02 218.67C406.97 218.67 411.79 218.79 411.79 218.93Z"
          fill="#263238"/>
    <path d="M250.84 319.4C250.36 322.21 237.02 351.73 245.63 351.73H288.91C288.91 351.73 284.44 347.53 297.97 319.4H250.84Z"
          fill="#455A64"/>
    <path d="M222.84 220.87L205.15 324.25H354.36L372.66 217.24L222.84 220.87Z" fill="#455A64"/>
    <path d="M227.91 225.91L213 318.19H349.25L365.67 224.93L227.91 225.91Z" fill="#FAFAFA"/>
    <path d="M372.66 217.24L375.48 219.14L356.48 327.06H209.09L205.15 324.25H354.36L372.66 217.24Z" fill="#263238"/>
    <path d="M226.56 234.31C226.61 233.98 364.11 233.79 364.11 233.79L365.67 224.93L227.91 225.93L226.56 234.33"
          fill="#EBEBEB"/>
    <path d="M327.78 310V309.74L327.9 308.97C328.027 308.237 328.197 307.237 328.41 305.97C328.88 303.28 329.54 299.42 330.36 294.63C332.06 284.93 334.43 271.43 337.12 256.11V255.89H348.38L348.33 256.2C344.16 278.79 340.51 298.64 338.4 310.05V310.17H338.29L330.45 310.09H328.45H327.96H328.5H330.57L338.32 310.01L338.18 310.12L347.86 256.23L348.12 256.53H337.4L337.65 256.32C334.88 271.55 332.45 284.96 330.65 294.61C329.77 299.41 329.05 303.28 328.55 305.98C328.3 307.29 328.11 308.32 327.97 309.06C327.9 309.39 327.85 309.66 327.81 309.86C327.802 309.907 327.792 309.954 327.78 310Z"
          fill="#263238"/>
    <path d="M310.5 310C310.513 309.757 310.55 309.516 310.61 309.28C310.7 308.75 310.83 308.04 310.99 307.14C311.35 305.21 311.85 302.48 312.48 299.14C313.79 292.21 315.62 282.57 317.71 271.55V271.34H328.97L328.91 271.65C325.75 287.32 322.91 301.25 321.15 310.08V310.21H321.02L313.19 310.12H311.19C310.967 310.135 310.743 310.135 310.52 310.12H311.26H313.34L321.06 310.03L320.9 310.16C322.64 301.32 325.38 287.38 328.46 271.69L328.71 272H317.93L318.18 271.8C316.01 282.72 314.11 292.28 312.74 299.15C312.05 302.56 311.5 305.3 311.1 307.23L310.65 309.42C310.65 309.65 310.55 309.84 310.52 309.99L310.5 310Z"
          fill="#263238"/>
    <path d="M293.15 310C293.142 309.894 293.142 309.787 293.15 309.68L293.31 308.68C293.46 307.8 293.67 306.54 293.95 304.92C294.53 301.61 295.36 296.84 296.4 290.92C298.52 278.92 301.47 262.31 304.81 243.48V243.27H316.07L316.02 243.57C310.8 272.16 306.19 297.07 303.75 310V310.11H303.64L295.77 310.03H293.77H293.11H293.82H295.87L303.65 309.96L303.53 310.06C305.81 297.06 310.31 272.17 315.53 243.59L315.79 243.9H305.1L305.35 243.68C301.94 262.41 298.92 278.97 296.74 290.88C295.64 296.82 294.74 301.61 294.14 304.93L293.42 308.74C293.34 309.16 293.28 309.49 293.23 309.74L293.15 310Z"
          fill="#263238"/>
    <path d="M275.83 310C275.838 309.832 275.858 309.665 275.89 309.5C275.96 309.11 276.04 308.62 276.14 308C276.37 306.62 276.7 304.7 277.14 302.31C278.01 297.36 279.22 290.49 280.61 282.55V282.34H291.86L291.8 282.65C289.73 293.45 287.87 303.17 286.55 310.04V310.19H286.41L278.61 310.09L276.5 310C276.27 310.014 276.04 310.014 275.81 310H276.57H278.68L286.36 309.9L286.18 310.04C287.46 303.17 289.27 293.43 291.27 282.62L291.53 282.93H280.82L281.06 282.73C279.58 290.58 278.31 297.37 277.38 302.26C276.92 304.66 276.54 306.6 276.27 307.99C276.14 308.62 276.04 309.14 275.96 309.53C275.926 309.689 275.882 309.846 275.83 310Z"
          fill="#263238"/>
    <path d="M258.5 310C258.5 310 258.5 309.93 258.5 309.79C258.5 309.65 258.5 309.4 258.59 309.14C258.69 308.53 258.82 307.69 258.99 306.61C259.36 304.36 259.88 301.14 260.53 297.14C261.89 289 263.77 277.68 265.92 264.79V264.58H277.18L277.12 264.89C273.82 283.52 270.91 299.99 269.12 310.03V310.16H269L261.18 310.07H259.13C258.907 310.084 258.683 310.084 258.46 310.07H258.65H259.19H261.27L269 309.99L268.85 310.11L276.63 264.93L276.89 265.24H266.22L266.47 265.03C264.24 277.83 262.28 289.03 260.87 297.14C260.15 301.14 259.58 304.39 259.17 306.66C258.97 307.75 258.82 308.66 258.7 309.23L258.57 309.91L258.5 310Z"
          fill="#263238"/>
    <path d="M241.2 310C241.187 309.904 241.187 309.806 241.2 309.71C241.2 309.49 241.28 309.2 241.34 308.83C241.48 308.02 241.67 306.83 241.92 305.39C242.43 302.39 243.18 298 244.1 292.58C246 281.63 248.65 266.39 251.65 249.14V248.93H262.91L262.86 249.24C258.2 275.16 254.08 297.82 251.81 310.03V310.14H251.7L243.85 310.06H241.85H241.37H241.9H243.95L251.72 309.98L251.59 310.09C253.71 297.85 257.73 275.17 262.39 249.26L262.64 249.56H251.93L252.18 249.35C249.11 266.51 246.39 281.66 244.44 292.55C243.44 297.99 242.65 302.36 242.09 305.4C241.82 306.9 241.6 308.06 241.45 308.89C241.37 309.27 241.32 309.57 241.27 309.8C241.22 310.03 241.2 310 241.2 310Z"
          fill="#263238"/>
    <path d="M233.67 230.07C233.672 230.322 233.599 230.568 233.461 230.778C233.323 230.988 233.125 231.153 232.893 231.25C232.661 231.348 232.406 231.375 232.159 231.327C231.911 231.279 231.684 231.159 231.506 230.982C231.327 230.804 231.205 230.578 231.155 230.331C231.105 230.085 231.13 229.829 231.226 229.596C231.322 229.364 231.484 229.165 231.693 229.025C231.903 228.885 232.148 228.81 232.4 228.81C232.735 228.81 233.057 228.942 233.295 229.178C233.532 229.414 233.667 229.735 233.67 230.07Z"
          fill="#263238"/>
    <path d="M238.61 231.33C239.306 231.33 239.87 230.766 239.87 230.07C239.87 229.374 239.306 228.81 238.61 228.81C237.914 228.81 237.35 229.374 237.35 230.07C237.35 230.766 237.914 231.33 238.61 231.33Z"
          fill="#263238"/>
    <path d="M246.08 230.07C246.082 230.322 246.009 230.569 245.87 230.779C245.731 230.99 245.533 231.154 245.301 231.251C245.068 231.349 244.812 231.375 244.565 231.326C244.317 231.277 244.09 231.156 243.912 230.978C243.734 230.8 243.613 230.573 243.564 230.325C243.515 230.078 243.541 229.822 243.639 229.589C243.736 229.357 243.9 229.159 244.111 229.02C244.321 228.881 244.568 228.808 244.82 228.81C245.153 228.813 245.472 228.946 245.708 229.182C245.944 229.418 246.077 229.737 246.08 230.07Z"
          fill="#263238"/>
    <path d="M223.88 310C223.88 310 223.88 309.74 223.99 309.23C224.1 308.72 224.2 307.92 224.36 306.96C224.71 304.96 225.2 302.03 225.81 298.44C227.09 291.1 228.86 280.9 230.89 269.26V269.05H242.15L242.09 269.36C239 286.02 236.25 300.8 234.54 310.04V310.17H234.42L226.59 310.08H224.59C224.364 310.094 224.136 310.094 223.91 310.08H224.11H224.65H226.73L234.46 309.99L234.3 310.12L241.65 269.41L241.9 269.71H231.14L231.39 269.5C229.28 281.05 227.39 291.17 226.11 298.44C225.43 302.05 224.89 304.96 224.5 307C224.32 308 224.17 308.76 224.06 309.32L223.94 309.93C223.921 309.954 223.901 309.978 223.88 310Z"
          fill="#263238"/>
    <path d="M340.77 269.31H283.69L286.95 250.15H344.43L340.77 269.31Z" fill="#FF725E"/>
    <path d="M283.69 269.31L282.58 276C282.58 276 290.08 269.05 289.96 269.05H283.74" fill="#FF725E"/>
    <path d="M335.82 256.81C335.82 256.95 326.31 257.07 314.59 257.07C302.87 257.07 293.35 256.95 293.35 256.81C293.35 256.67 302.86 256.55 314.59 256.55C326.32 256.55 335.82 256.67 335.82 256.81Z"
          fill="#FAFAFA"/>
    <path d="M335.26 261.44C335.26 261.58 325.75 261.7 314.03 261.7C302.31 261.7 292.79 261.58 292.79 261.44C292.79 261.3 302.3 261.18 314.03 261.18C325.76 261.18 335.26 261.29 335.26 261.44Z"
          fill="#FAFAFA"/>
    <path d="M428.62 358.35H266V453.24H428.62V358.35Z" fill="#263238"/>
    <path d="M340.08 358.35H266V453.24H340.08V358.35Z" fill="#455A64"/>
    <path d="M332.5 390.58C332.5 390.58 332.5 390.41 332.5 390.1C332.5 389.79 332.5 389.31 332.5 388.72C332.5 387.49 332.5 385.72 332.45 383.45C332.45 378.89 332.4 372.32 332.35 364.22L332.54 364.41L272.95 364.48C272.72 364.72 273.26 364.17 273.21 364.23V371.09C273.21 373.36 273.21 375.6 273.21 377.8C273.21 382.21 273.21 386.49 273.21 390.58L272.97 390.34L315.68 390.45L328.07 390.52H331.39H332.26H332.56C332.47 390.53 332.38 390.53 332.29 390.52H331.45H328.18L315.85 390.59L272.97 390.71H272.72V390.46C272.72 386.37 272.72 382.09 272.72 377.68V364.23C272.66 364.23 273.21 363.73 272.98 363.96L332.5 364H332.69V364.18C332.69 372.33 332.61 378.93 332.59 383.53C332.59 385.78 332.59 387.53 332.54 388.75C332.54 389.32 332.54 389.75 332.54 390.1C332.538 390.261 332.525 390.421 332.5 390.58Z"
          fill="#263238"/>
    <path d="M305.27 377.4C305.27 377.4 305.21 377.18 305.09 376.81C304.923 376.299 304.597 375.854 304.16 375.54C303.845 375.312 303.478 375.166 303.092 375.115C302.706 375.064 302.313 375.111 301.95 375.25C301.511 375.414 301.132 375.708 300.864 376.093C300.597 376.478 300.454 376.936 300.454 377.405C300.454 377.874 300.597 378.332 300.864 378.717C301.132 379.102 301.511 379.396 301.95 379.56C302.314 379.694 302.706 379.738 303.091 379.687C303.476 379.637 303.843 379.494 304.16 379.27C304.597 378.956 304.923 378.511 305.09 378C305.21 377.63 305.22 377.4 305.27 377.4C305.32 377.4 305.35 377.63 305.27 378.05C305.154 378.645 304.832 379.18 304.36 379.56C304.003 379.85 303.577 380.044 303.124 380.123C302.67 380.202 302.204 380.163 301.77 380.01C301.23 379.821 300.762 379.469 300.431 379.002C300.1 378.535 299.922 377.977 299.922 377.405C299.922 376.833 300.1 376.275 300.431 375.808C300.762 375.341 301.23 374.989 301.77 374.8C302.204 374.649 302.669 374.61 303.122 374.687C303.575 374.764 304.001 374.954 304.36 375.24C304.833 375.623 305.156 376.162 305.27 376.76C305.35 377.18 305.3 377.41 305.27 377.4Z"
          fill="#263238"/>
    <path d="M332.5 419.6C332.5 419.6 332.5 419.43 332.5 419.12C332.5 418.81 332.5 418.32 332.5 417.73C332.5 416.5 332.5 414.73 332.45 412.47C332.45 407.9 332.4 401.34 332.35 393.24L332.54 393.43L272.95 393.5L273.21 393.24V400.09C273.21 402.36 273.21 404.59 273.21 406.8C273.21 411.21 273.21 415.48 273.21 419.58L272.97 419.33L315.68 419.45L328.07 419.52H331.39H332.26C332.36 419.512 332.46 419.512 332.56 419.52H332.29H331.45H328.18L315.85 419.59L272.97 419.71H272.72V419.46C272.72 415.36 272.72 411.09 272.72 406.68V393.26L272.98 393L332.57 393.07H332.76V393.26C332.76 401.41 332.68 408.01 332.66 412.6C332.66 414.85 332.66 416.6 332.61 417.83C332.61 418.4 332.61 418.83 332.61 419.17C332.582 419.315 332.545 419.459 332.5 419.6Z"
          fill="#263238"/>
    <path d="M305.27 406.42C305.27 406.42 305.21 406.19 305.09 405.82C304.923 405.309 304.597 404.864 304.16 404.55C303.843 404.326 303.476 404.183 303.091 404.133C302.706 404.082 302.314 404.126 301.95 404.26C301.511 404.424 301.132 404.718 300.864 405.103C300.597 405.488 300.454 405.946 300.454 406.415C300.454 406.884 300.597 407.342 300.864 407.727C301.132 408.112 301.511 408.406 301.95 408.57C302.313 408.708 302.705 408.755 303.09 408.706C303.475 408.657 303.843 408.514 304.16 408.29C304.6 407.975 304.926 407.526 305.09 407.01C305.21 406.64 305.22 406.42 305.27 406.42C305.32 406.42 305.35 406.65 305.27 407.06C305.157 407.659 304.835 408.198 304.36 408.58C304.002 408.869 303.576 409.061 303.122 409.138C302.669 409.215 302.203 409.174 301.77 409.02C301.23 408.831 300.762 408.479 300.431 408.012C300.1 407.545 299.922 406.987 299.922 406.415C299.922 405.843 300.1 405.285 300.431 404.818C300.762 404.351 301.23 403.999 301.77 403.81C302.204 403.657 302.67 403.618 303.124 403.697C303.577 403.776 304.003 403.97 304.36 404.26C304.835 404.642 305.157 405.181 305.27 405.78C305.35 406.19 305.3 406.42 305.27 406.42Z"
          fill="#263238"/>
    <path d="M332.5 448.61C332.5 448.61 332.5 448.44 332.5 448.13C332.5 447.82 332.5 447.34 332.5 446.75C332.5 445.52 332.5 443.75 332.45 441.48C332.45 436.92 332.4 430.35 332.35 422.25L332.54 422.44L272.95 422.51C272.72 422.75 273.26 422.2 273.21 422.26V429.12C273.21 431.39 273.21 433.63 273.21 435.83C273.21 440.24 273.21 444.52 273.21 448.61L272.97 448.37L315.68 448.48L328.07 448.55H331.39H332.26H332.56C332.47 448.56 332.38 448.56 332.29 448.55H331.45H328.18L315.85 448.61L272.97 448.73H272.72V448.48C272.72 444.39 272.72 440.11 272.72 435.7V422.26C272.66 422.31 273.21 421.76 272.98 421.99L332.57 422.07H332.76V422.25C332.76 430.4 332.68 437.01 332.66 441.6C332.66 443.85 332.66 445.6 332.61 446.82C332.61 447.4 332.61 447.82 332.61 448.17C332.583 448.319 332.547 448.466 332.5 448.61Z"
          fill="#263238"/>
    <path d="M305.27 435.43C305.27 435.43 305.21 435.21 305.09 434.84C304.923 434.328 304.597 433.884 304.16 433.57C303.844 433.344 303.477 433.2 303.091 433.149C302.706 433.098 302.314 433.143 301.95 433.28C301.511 433.444 301.132 433.738 300.864 434.123C300.597 434.508 300.454 434.966 300.454 435.435C300.454 435.904 300.597 436.362 300.864 436.747C301.132 437.132 301.511 437.426 301.95 437.59C302.314 437.727 302.706 437.772 303.091 437.721C303.477 437.67 303.844 437.526 304.16 437.3C304.597 436.986 304.923 436.541 305.09 436.03C305.21 435.66 305.22 435.43 305.27 435.43C305.32 435.43 305.35 435.66 305.27 436.08C305.153 436.677 304.831 437.215 304.36 437.6C304.001 437.886 303.575 438.076 303.122 438.153C302.669 438.23 302.204 438.191 301.77 438.04C301.23 437.851 300.762 437.499 300.431 437.032C300.1 436.565 299.922 436.007 299.922 435.435C299.922 434.863 300.1 434.305 300.431 433.838C300.762 433.371 301.23 433.019 301.77 432.83C302.204 432.679 302.669 432.64 303.122 432.717C303.575 432.793 304.001 432.984 304.36 433.27C304.833 433.653 305.156 434.192 305.27 434.79C305.35 435.21 305.3 435.44 305.27 435.43Z"
          fill="#263238"/>
    <path d="M185.8 358.35H49.01V453.24H185.8V358.35Z" fill="#263238"/>
    <path d="M434.51 351.73H43.76V360.75H434.51V351.73Z" fill="#263238"/>
    <path d="M61.13 360.75H49.01V453.24H61.13V360.75Z" fill="#455A64"/>
    <path d="M200.93 209C200.85 208.621 200.793 208.237 200.76 207.85C200.614 206.822 200.275 205.831 199.76 204.93C199.426 204.326 198.917 203.838 198.3 203.53C197.952 203.381 197.568 203.338 197.196 203.407C196.824 203.477 196.481 203.655 196.21 203.92C195.052 205.358 194.42 207.149 194.42 208.995C194.42 210.841 195.052 212.632 196.21 214.07C196.479 214.336 196.822 214.517 197.194 214.588C197.566 214.659 197.951 214.618 198.3 214.47C198.916 214.155 199.424 213.664 199.76 213.06C200.275 212.159 200.614 211.168 200.76 210.14C200.792 209.757 200.849 209.376 200.93 209C200.995 209.387 200.995 209.783 200.93 210.17C200.863 211.247 200.566 212.297 200.06 213.25C199.698 213.937 199.137 214.498 198.45 214.86C198.043 215.055 197.586 215.121 197.14 215.05C196.674 214.959 196.24 214.749 195.88 214.44C194.589 212.921 193.88 210.993 193.88 209C193.88 207.007 194.589 205.079 195.88 203.56C196.237 203.245 196.672 203.031 197.14 202.94C197.586 202.874 198.041 202.94 198.45 203.13C199.137 203.492 199.698 204.053 200.06 204.74C200.568 205.696 200.865 206.75 200.93 207.83C200.994 208.217 200.994 208.613 200.93 209Z"
          fill="#263238"/>
    <path d="M157.76 189.45L154.76 249.37L180.5 251.79L181.92 237.24C181.92 237.24 190.92 239.48 193.72 231.11C195.47 225.76 197.03 183.87 197.03 183.87L157.76 189.45Z"
          fill="#FFBE9D"/>
    <path d="M202.5 190.05C200.31 195.26 192.05 199.73 192.05 199.73L190.7 213C189.471 212.915 188.239 212.915 187.01 213C187.67 206.77 179.66 208 178.84 212.23C178.06 216.31 182.71 219.04 182.71 219.04C179.5 223.96 178.2 226.56 173.64 231.17C168.72 236.17 166.07 236.57 160.98 236.42L155.37 236.16C155.37 236.16 153.37 231.37 151.92 220.06C151.21 214.62 146.92 207.49 148.17 198.64C151.61 173.51 179.42 177.97 179.42 177.97C189.86 169.85 207.66 177.8 202.5 190.05Z"
          fill="#263238"/>
    <path d="M200.93 209.07C199.032 209.436 197.103 209.623 195.17 209.63C193.247 209.801 191.313 209.801 189.39 209.63C191.286 209.27 193.211 209.086 195.14 209.08C197.066 208.909 199.003 208.906 200.93 209.07Z"
          fill="#263238"/>
    <path d="M282.93 279.46L273.58 285.25L270.15 293.25V286.25C270.15 286.25 272.69 283.25 274.77 281.06C276.85 278.87 275.36 277.35 274.77 276.6C274.18 275.85 265.23 286.25 265.23 286.25V292.25C261.06 287.12 259.13 288.88 258.49 289.81C257.85 290.74 265.23 297.7 265.23 297.7V299.82L228.56 319.54L218.91 295.54L199.2 305.89L210.97 334.38C211.781 336.351 213.008 338.124 214.565 339.58C216.122 341.035 217.974 342.138 219.996 342.814C222.017 343.491 224.16 343.724 226.28 343.499C228.399 343.274 230.446 342.596 232.28 341.51L275.43 316L278.3 311.21C279.296 309.559 279.883 307.694 280.01 305.77L281.5 284.22C284.12 282.58 282.93 279.46 282.93 279.46Z"
          fill="#FFBE9D"/>
    <path d="M228.74 319.57C227.869 322.945 226.656 326.221 225.12 329.35C226.003 325.979 227.216 322.704 228.74 319.57Z"
          fill="#EB996E"/>
    <path d="M281.5 284.22C280.948 284.504 280.38 284.758 279.8 284.98C279.138 285.294 278.548 285.739 278.064 286.29C277.581 286.84 277.215 287.483 276.99 288.18C276.243 290.194 275.333 292.143 274.27 294.01C274.856 291.954 275.605 289.947 276.51 288.01C276.802 287.192 277.266 286.445 277.87 285.82C278.388 285.339 278.987 284.953 279.64 284.68C280.217 284.387 280.853 284.229 281.5 284.22Z"
          fill="#EB996E"/>
    <path d="M281.36 287.63C281.198 287.652 281.042 287.71 280.906 287.8C280.769 287.89 280.654 288.01 280.57 288.15C280.28 288.71 279.91 289.59 279.57 290.53C279.194 291.72 278.754 292.888 278.25 294.03C278.251 292.754 278.535 291.494 279.08 290.34C279.403 289.498 279.815 288.694 280.31 287.94C280.401 287.815 280.517 287.71 280.652 287.634C280.786 287.559 280.936 287.513 281.09 287.5C281.28 287.5 281.37 287.6 281.36 287.63Z"
          fill="#EB996E"/>
    <path d="M193.31 302.24L197.5 316.43L224.09 304.43C223.09 301.43 218.73 288.22 210.32 267.22C208.017 261.462 204.271 256.394 199.443 252.502C194.614 248.611 188.866 246.027 182.75 245C174.05 243.55 164.58 242.42 157.29 242.51C150.052 242.577 143.057 245.126 137.473 249.731C131.889 254.336 128.054 260.718 126.61 267.81C124.36 278.96 128.3 286.33 125.76 310.73L124.95 372.1L195.95 374.71L193.31 302.24Z"
          fill="#FF725E"/>
    <path d="M129.06 310.08C129.06 310.08 119.19 310.66 115.31 303.19C115.31 303.19 125.94 263.89 129.65 259.26L129.06 310.08Z"
          fill="#FF725E"/>
    <path d="M211.66 271.18C211.406 271.376 211.122 271.532 210.82 271.64C209.95 271.956 209.035 272.128 208.11 272.15C206.656 272.143 205.209 271.958 203.8 271.6C202.16 271.23 200.33 270.68 198.28 270.34C197.212 270.211 196.136 270.154 195.06 270.17C193.896 270.262 192.742 270.453 191.61 270.74C189.099 271.422 186.689 272.431 184.44 273.74C182.01 275.06 179.54 276.62 176.91 278.16C174.211 279.835 171.32 281.178 168.3 282.16C165.196 283.122 161.882 283.174 158.75 282.31C155.909 281.391 153.262 279.957 150.94 278.08C148.71 276.35 146.77 274.53 144.94 272.87C143.271 271.314 141.5 269.871 139.64 268.55C136.991 266.571 133.904 265.26 130.64 264.73C129.434 264.662 128.226 264.662 127.02 264.73C127.315 264.61 127.624 264.53 127.94 264.49C128.846 264.346 129.765 264.302 130.68 264.36C134.051 264.751 137.266 265.998 140.02 267.98C141.941 269.277 143.766 270.71 145.48 272.27C147.34 273.91 149.3 275.69 151.48 277.35C153.721 279.126 156.266 280.481 158.99 281.35C161.946 282.146 165.067 282.087 167.99 281.18C170.927 280.22 173.743 278.921 176.38 277.31C178.99 275.8 181.48 274.24 183.96 272.92C186.293 271.595 188.791 270.586 191.39 269.92C192.579 269.636 193.79 269.455 195.01 269.38C196.138 269.392 197.264 269.479 198.38 269.64C200.5 270.04 202.31 270.64 203.92 271.06C205.279 271.452 206.678 271.687 208.09 271.76C209.303 271.753 210.507 271.558 211.66 271.18Z"
          fill="#263238"/>
    <path d="M193.78 320.15C192.424 319.342 190.928 318.8 189.37 318.55C187.673 318.35 185.955 318.444 184.29 318.83C182.39 319.21 180.34 319.9 178.09 320.46C174.229 321.453 170.187 321.507 166.3 320.62C163.3 319.92 161.69 318.97 161.74 318.87C161.79 318.77 163.53 319.4 166.45 319.87C170.237 320.514 174.116 320.361 177.84 319.42C180.03 318.87 182.12 318.2 184.11 317.85C185.884 317.491 187.709 317.471 189.49 317.79C190.696 318.004 191.842 318.475 192.85 319.17C193.55 319.72 193.83 320.11 193.78 320.15Z"
          fill="#263238"/>
    <path d="M194.5 356.79C194.5 356.79 194.23 357.24 193.56 357.87C192.592 358.755 191.509 359.505 190.34 360.1C188.586 361.011 186.646 361.503 184.67 361.54C182.258 361.474 179.882 360.944 177.67 359.98C175.34 359.07 173.21 358.05 171.2 357.48C169.424 356.937 167.564 356.72 165.71 356.84C164.472 356.914 163.264 357.256 162.17 357.84C161.39 358.27 161.03 358.62 160.96 358.55C160.89 358.48 161.2 358.06 161.96 357.55C163.044 356.764 164.311 356.269 165.64 356.11C167.591 355.882 169.567 356.035 171.46 356.56C173.704 357.257 175.907 358.079 178.06 359.02C180.145 359.933 182.377 360.464 184.65 360.59C186.496 360.598 188.321 360.205 190 359.44C192.95 358.11 194.4 356.64 194.5 356.79Z"
          fill="#263238"/>
    <g opacity="0.3">
        <path d="M117.5 310.77C126.8 312.67 136.35 310.77 145.82 310.19C151.57 309.85 157.94 309.19 162.48 312.76C166.08 315.56 167.48 320.27 168.57 324.71C172.57 341.65 173.26 356.78 174.15 374.15L128.15 373.15L117.5 310.77Z"
              fill="black"/>
    </g>
    <path opacity="0.3" d="M129.65 278.88L131.64 307.56H125.58L129.65 278.88Z" fill="black"/>
    <path d="M142.57 372.06L233.87 375.29C240.995 375.541 247.737 378.576 252.647 383.745C257.558 388.913 260.244 395.802 260.13 402.93L259.33 454.74H225.85L223.69 410.07L142.57 407.93V372.06Z"
          fill="#263238"/>
    <path d="M173.19 419.43H164.21V452.3H173.19V419.43Z" fill="#455A64"/>
    <path d="M88.86 315V394.2C88.8626 399.187 90.8456 403.969 94.3728 407.494C97.9001 411.02 102.683 413 107.67 413H160.41V315C160.407 312.777 159.522 310.645 157.949 309.074C156.376 307.503 154.243 306.62 152.02 306.62H97.24C95.0175 306.62 92.886 307.503 91.3144 309.074C89.7429 310.646 88.86 312.777 88.86 315Z"
          fill="#455A64"/>
    <path d="M231.39 419.43H102.95C102.966 415.727 104.448 412.182 107.072 409.569C109.695 406.957 113.247 405.49 116.95 405.49H217.5C221.197 405.49 224.743 406.959 227.357 409.573C229.971 412.187 231.44 415.733 231.44 419.43H231.39Z"
          fill="#455A64"/>
    <path d="M160.41 403.64C160.468 404.422 160.401 405.209 160.21 405.97C159.779 407.753 158.841 409.373 157.508 410.633C156.174 411.894 154.504 412.74 152.7 413.07C151.884 413.203 151.057 413.259 150.23 413.24H147.64H136.1H115.1L108.75 413.16H107.02C106.818 413.166 106.616 413.146 106.42 413.1C106.618 413.068 106.819 413.051 107.02 413.05L108.75 413L115.1 412.91L136.1 412.81H150.23C151.033 412.841 151.836 412.794 152.63 412.67C154.034 412.427 155.36 411.855 156.5 411C158.191 409.75 159.413 407.968 159.97 405.94C160.39 404.48 160.34 403.63 160.41 403.64Z"
          fill="#263238"/>
    <path d="M176.57 419.7C173.955 419.964 171.326 420.05 168.7 419.96C166.07 420.051 163.438 419.964 160.82 419.7C163.438 419.442 166.07 419.356 168.7 419.44C171.326 419.356 173.955 419.443 176.57 419.7Z"
          fill="#263238"/>
    <path d="M215.65 413.7C215.526 413.379 215.445 413.043 215.41 412.7C215.28 412.05 215.11 411.11 214.91 409.89C214.5 407.44 213.91 403.89 213.27 399.53C212.91 397.35 212.62 394.92 212.14 392.39C212.01 391.76 211.89 391.12 211.76 390.46C211.63 389.8 211.38 389.18 211.19 388.52C211.09 388.2 211 387.86 210.9 387.52C210.8 387.18 210.65 386.87 210.52 386.52C210.25 385.86 210.01 385.19 209.72 384.52C208.45 381.782 206.845 379.212 204.94 376.87C202.86 374.383 200.44 372.201 197.75 370.39C195.072 368.558 192.132 367.141 189.03 366.19C186.151 365.276 183.159 364.765 180.14 364.67C174.32 364.54 169.02 364.57 164.6 364.51C160.18 364.45 156.6 364.4 154.12 364.34C152.88 364.34 151.92 364.28 151.26 364.24C150.924 364.25 150.588 364.217 150.26 364.14C150.586 364.056 150.923 364.019 151.26 364.03L154.12 363.93C156.59 363.87 160.18 363.82 164.6 363.77C169.02 363.72 174.29 363.63 180.17 363.71C183.283 363.777 186.37 364.285 189.34 365.22C192.546 366.18 195.583 367.634 198.34 369.53C201.118 371.389 203.611 373.643 205.74 376.22C207.689 378.642 209.325 381.299 210.61 384.13C210.9 384.81 211.14 385.51 211.41 386.18C211.53 386.52 211.66 386.85 211.79 387.18C211.92 387.51 211.98 387.86 212.08 388.18C212.27 388.86 212.45 389.52 212.63 390.18C212.81 390.84 212.88 391.51 213 392.18C213.45 394.77 213.69 397.18 214 399.36C214.57 403.75 215 407.31 215.31 409.77C215.45 411 215.56 411.96 215.62 412.61C215.685 412.97 215.695 413.337 215.65 413.7Z"
          fill="#455A64"/>
    <path d="M53.5699 317.86C53.5699 317.86 51.9499 322.39 55.0499 325.67H61.4999C61.4999 325.67 60.9299 318.35 53.5699 317.86Z"
          fill="#FF725E"/>
    <path opacity="0.4"
          d="M53.5699 317.86C53.5699 317.86 51.9499 322.39 55.0499 325.67H61.4999C61.4999 325.67 60.9299 318.35 53.5699 317.86Z"
          fill="black"/>
    <path d="M64.56 308.53C64.29 308.21 58.77 316.85 61.87 325.67H67.95C67.95 325.67 70.33 315.41 64.56 308.53Z"
          fill="#FF725E"/>
    <path d="M75.33 317.86C73.3424 317.993 71.4784 318.872 70.1103 320.32C68.7422 321.767 67.9707 323.678 67.95 325.67H74.02C74.02 325.67 76.68 321.93 75.33 317.86Z"
          fill="#FF725E"/>
    <path d="M54.55 325.33C52.4531 326.835 50.8267 328.905 49.8601 331.298C48.8935 333.692 48.6264 336.311 49.09 338.85C50.65 347.85 60.15 351.73 60.15 351.73H70.68C70.68 351.73 81.4 347 81.14 337.27C80.88 327.54 74.5 325.47 74.5 325.47L54.55 325.33Z"
          fill="#455A64"/>
    <path d="M81.1 336.18C80.8616 335.778 80.5688 335.412 80.23 335.09C79.7403 334.699 79.1779 334.41 78.5753 334.238C77.9728 334.066 77.3421 334.016 76.72 334.09C74.8577 334.443 73.098 335.208 71.57 336.33C70.5994 336.951 69.5713 337.477 68.5 337.9C67.3179 338.35 66.0376 338.477 64.79 338.27C62.22 337.83 60.17 336.45 58.25 335.53C56.6163 334.577 54.7385 334.125 52.85 334.23C51.5874 334.361 50.4185 334.956 49.57 335.9C49.2864 336.272 49.045 336.675 48.85 337.1C48.8567 336.974 48.8802 336.85 48.92 336.73C49.0236 336.371 49.1895 336.032 49.41 335.73C50.2485 334.678 51.4652 333.996 52.8 333.83C54.7855 333.656 56.7763 334.099 58.5 335.1C60.5 336.02 62.5 337.35 64.91 337.75C66.0721 337.95 67.2665 337.836 68.37 337.42C69.4156 337.013 70.4201 336.507 71.37 335.91C72.9647 334.778 74.7988 334.029 76.73 333.72C77.3961 333.655 78.0685 333.73 78.704 333.94C79.3394 334.15 79.924 334.491 80.42 334.94C80.678 335.194 80.8881 335.492 81.04 335.82C81.09 336.05 81.12 336.17 81.1 336.18Z"
          fill="#263238"/>
    <path d="M81.25 338.53C81.0101 338.135 80.7211 337.772 80.39 337.45C79.9078 337.057 79.3507 336.765 78.7525 336.593C78.1544 336.421 77.5275 336.373 76.91 336.45C75.0682 336.804 73.3291 337.566 71.82 338.68C70.8746 339.304 69.8697 339.834 68.82 340.26C67.6487 340.711 66.3777 340.839 65.14 340.63C62.59 340.19 60.56 338.81 58.66 337.89C57.0514 336.938 55.1962 336.486 53.33 336.59C52.0756 336.727 50.9171 337.326 50.08 338.27C49.8008 338.638 49.5658 339.037 49.38 339.46C49.38 339.46 49.38 339.33 49.44 339.09C49.5482 338.75 49.7102 338.429 49.92 338.14C50.7451 337.091 51.9471 336.406 53.27 336.23C55.222 336.053 57.1812 336.482 58.88 337.46C60.82 338.38 62.88 339.71 65.22 340.11C66.3689 340.31 67.5505 340.196 68.64 339.78C69.6702 339.374 70.6582 338.868 71.59 338.27C73.166 337.138 74.984 336.388 76.9 336.08C77.5519 336.021 78.2089 336.1 78.8288 336.31C79.4488 336.52 80.018 336.857 80.5 337.3C80.7535 337.551 80.9601 337.846 81.11 338.17C81.1763 338.281 81.2236 338.403 81.25 338.53Z"
          fill="#263238"/>
    <path d="M53.9199 338.47C53.9199 338.41 54.1999 338.23 54.5699 338.53C54.6817 338.626 54.7617 338.755 54.7992 338.897C54.8367 339.04 54.8299 339.191 54.7799 339.33C54.7184 339.501 54.603 339.648 54.4511 339.748C54.2991 339.847 54.1189 339.895 53.9374 339.884C53.7559 339.873 53.583 339.803 53.4446 339.685C53.3062 339.567 53.2098 339.407 53.1699 339.23C53.1348 339.093 53.1376 338.949 53.1781 338.813C53.2187 338.677 53.2953 338.555 53.3999 338.46C53.7599 338.16 54.0699 338.3 54.0499 338.36C54.0299 338.42 53.8299 338.47 53.6799 338.71C53.6475 338.77 53.6306 338.837 53.6306 338.905C53.6306 338.973 53.6475 339.04 53.6799 339.1C53.7092 339.17 53.7558 339.231 53.8152 339.279C53.8747 339.326 53.9451 339.357 54.0199 339.37C54.0938 339.367 54.1657 339.346 54.2288 339.307C54.2918 339.269 54.3439 339.214 54.3799 339.15C54.4134 339.094 54.4311 339.03 54.4311 338.965C54.4311 338.9 54.4134 338.836 54.3799 338.78C54.1599 338.55 53.9299 338.54 53.9199 338.47Z"
          fill="#263238"/>
    <path d="M65.8499 334.67C65.8499 334.61 66.13 334.42 66.51 334.73C66.6178 334.829 66.6942 334.958 66.7298 335.1C66.7653 335.242 66.7584 335.392 66.7099 335.53C66.6468 335.7 66.5316 335.846 66.3808 335.946C66.2299 336.047 66.0511 336.097 65.87 336.09C65.6892 336.073 65.5182 336 65.3803 335.882C65.2425 335.764 65.1445 335.606 65.0999 335.43C65.0637 335.292 65.0669 335.147 65.1094 335.011C65.1518 334.874 65.2317 334.753 65.3399 334.66C65.6999 334.36 66.01 334.5 65.98 334.56C65.95 334.62 65.76 334.67 65.61 334.91C65.58 334.971 65.5644 335.037 65.5644 335.105C65.5644 335.173 65.58 335.239 65.61 335.3C65.6392 335.37 65.6858 335.432 65.7452 335.479C65.8047 335.526 65.8751 335.557 65.9499 335.57C66.024 335.568 66.0964 335.547 66.1596 335.508C66.2228 335.47 66.2747 335.415 66.3099 335.35C66.3445 335.295 66.3628 335.23 66.3628 335.165C66.3628 335.1 66.3445 335.036 66.3099 334.98C66.0899 334.75 65.8599 334.74 65.8499 334.67Z"
          fill="#263238"/>
    <path d="M77.42 338.64C77.42 338.58 77.7 338.4 78.08 338.7C78.1879 338.799 78.2643 338.928 78.2998 339.07C78.3354 339.212 78.3285 339.362 78.28 339.5C78.2169 339.67 78.1017 339.816 77.9508 339.916C77.8 340.017 77.6212 340.067 77.44 340.06C77.2606 340.044 77.0905 339.972 76.9528 339.856C76.8151 339.74 76.7164 339.584 76.67 339.41C76.6341 339.27 76.6375 339.124 76.6799 338.986C76.7222 338.848 76.8019 338.725 76.91 338.63C77.27 338.33 77.58 338.47 77.55 338.53C77.52 338.59 77.33 338.65 77.18 338.88C77.138 338.939 77.112 339.008 77.1046 339.081C77.0972 339.153 77.1087 339.226 77.1379 339.292C77.1671 339.359 77.2131 339.416 77.2713 339.46C77.3295 339.503 77.398 339.531 77.47 339.54C77.5441 339.538 77.6164 339.517 77.6797 339.478C77.7429 339.44 77.7948 339.385 77.83 339.32C77.8646 339.264 77.8829 339.2 77.8829 339.135C77.8829 339.07 77.8646 339.006 77.83 338.95C77.66 338.73 77.44 338.71 77.42 338.64Z"
          fill="#263238"/>
    <path d="M381.82 316.15L385.25 351.73H402.59L406.74 316.15H381.82Z" fill="#455A64"/>
    <path d="M381.82 311.55C380.753 312.883 380.177 314.543 380.19 316.25H408.37C408.507 315.393 408.43 314.515 408.146 313.695C407.861 312.875 407.378 312.138 406.74 311.55H381.82Z"
          fill="#263238"/>
    <path d="M385.03 308.29L384.08 311.81L405.35 311.97L403.94 308.25L385.03 308.29Z" fill="#263238"/>
    <path d="M381.5 325.06C381.5 325.39 383.5 343 383.5 343H404.69L406.69 325.09L381.5 325.06Z" fill="#FF725E"/>
</svg>
