<svg width="100" height="100" viewBox="0 0 82 82" fill="none" xmlns="http://www.w3.org/2000/svg">
    <path fill-rule="evenodd" clip-rule="evenodd"
          d="M0.375 41C0.375 18.5634 18.5634 0.375 41 0.375C63.4366 0.375 81.625 18.5634 81.625 41C81.625 63.4366 63.4366 81.625 41 81.625C18.5634 81.625 0.375 63.4366 0.375 41ZM47.782 24.6803C44.0786 21.4399 37.9233 21.4399 34.2199 24.6803C32.9211 25.8168 30.9468 25.6852 29.8103 24.3863C28.6738 23.0875 28.8054 21.1132 30.1043 19.9767C36.164 14.6744 45.8378 14.6744 51.8976 19.9767C58.2021 25.4931 58.2021 34.6319 51.8976 40.1483C50.8282 41.084 49.6504 41.8505 48.4085 42.4515C45.5907 43.8152 44.1259 45.6757 44.1259 47.25V50.375C44.1259 52.1009 42.7268 53.5 41.0009 53.5C39.2751 53.5 37.8759 52.1009 37.8759 50.375V47.25C37.8759 41.9207 42.2896 38.4693 45.6859 36.8257C46.4469 36.4574 47.1521 35.9958 47.782 35.4447C51.2406 32.4184 51.2406 27.7066 47.782 24.6803ZM41 66C42.7259 66 44.125 64.6009 44.125 62.875C44.125 61.1491 42.7259 59.75 41 59.75C39.2741 59.75 37.875 61.1491 37.875 62.875C37.875 64.6009 39.2741 66 41 66Z"
          fill="#47192C"/>
</svg>
